<?xml version="1.0" standalone="no"?>
<!DOCTYPE svg PUBLIC "-//W3C//DTD SVG 20010904//EN"
 "http://www.w3.org/TR/2001/REC-SVG-20010904/DTD/svg10.dtd">
<svg version="1.0" xmlns="http://www.w3.org/2000/svg"
 width="626.000000pt" height="626.000000pt" viewBox="0 0 626.000000 626.000000"
 preserveAspectRatio="xMidYMid meet">

<g transform="translate(0.000000,626.000000) scale(0.100000,-0.100000)"
fill="#000000" stroke="none">
<path d="M4154 5896 c-79 -35 -157 -136 -214 -274 -18 -42 -57 -131 -87 -196
-31 -66 -66 -158 -80 -205 -30 -106 -78 -210 -130 -287 -76 -112 -109 -199
-167 -445 -41 -170 -127 -398 -143 -377 -48 61 -45 190 12 442 24 111 58 273
76 361 17 88 55 273 85 410 102 463 87 536 -103 522 -114 -9 -148 -37 -217
-188 -58 -125 -93 -241 -121 -402 -9 -48 -44 -152 -89 -265 -73 -184 -85 -228
-131 -487 -35 -198 -64 -289 -157 -497 l-93 -206 -107 -113 c-59 -62 -110
-110 -114 -106 -4 4 -11 119 -15 255 -9 311 -30 494 -62 565 -13 29 -62 104
-109 167 -121 164 -183 216 -293 245 -74 19 -136 19 -180 1 -57 -24 -50 -63
58 -316 65 -152 75 -196 87 -390 6 -96 15 -202 20 -235 4 -33 9 -122 9 -198
l1 -138 -41 -96 c-60 -140 -65 -178 -48 -319 17 -145 17 -164 1 -434 -7 -119
-10 -275 -6 -350 l6 -135 -132 -170 c-154 -198 -235 -310 -352 -491 -104 -160
-197 -286 -311 -422 -48 -57 -87 -107 -87 -112 0 -4 42 -30 93 -56 106 -56
125 -64 79 -34 -17 12 -32 26 -32 32 0 5 4 7 9 4 4 -3 19 7 32 22 13 14 16 20
6 13 -34 -26 -17 9 24 50 22 22 42 50 44 61 2 11 9 27 16 37 6 9 -5 -2 -25
-23 -20 -22 -36 -45 -36 -53 0 -7 -5 -13 -11 -13 -5 0 -7 5 -3 12 5 7 3 8 -5
4 -7 -5 -10 -10 -7 -13 6 -6 -20 -57 -42 -85 -13 -16 -18 -15 -68 10 -30 14
-54 29 -54 32 0 3 17 16 38 29 20 13 95 67 165 120 70 53 131 96 135 96 4 0
20 14 36 30 25 26 27 27 14 5 -8 -14 -27 -46 -42 -72 -28 -48 -43 -63 -32 -30
5 14 3 14 -9 -2 -10 -13 -12 -23 -5 -30 10 -10 103 72 208 183 l53 56 -15 -38
c-9 -21 -25 -53 -37 -70 l-21 -32 28 32 c16 18 54 62 84 98 60 72 77 71 34 -2
l-27 -46 30 21 c17 12 50 51 74 86 24 36 48 66 53 66 5 0 6 -16 3 -36 -5 -30
-4 -34 8 -24 8 7 15 9 15 4 0 -5 8 5 18 21 20 33 41 53 57 54 6 1 10 4 10 9 1
4 8 21 17 37 l17 30 7 -33 c4 -18 11 -35 15 -38 5 -3 9 -16 9 -29 0 -13 4 -26
10 -30 11 -7 35 73 49 164 6 36 16 68 22 71 8 6 8 9 0 14 -6 4 -11 13 -11 19
1 21 40 -34 40 -57 0 -11 4 -27 9 -35 6 -8 11 7 16 44 13 107 76 134 169 72
27 -17 58 -37 68 -43 10 -6 29 -20 41 -32 47 -43 99 -62 170 -62 86 0 131 -18
145 -59 10 -28 9 -31 -9 -31 -11 0 -45 9 -76 20 -55 19 -90 20 -42 1 43 -17
135 -72 109 -66 -72 19 -255 128 -309 185 l-33 35 30 -39 c35 -45 165 -141
256 -189 33 -17 79 -51 101 -73 22 -23 59 -51 83 -63 23 -12 42 -25 41 -29 0
-10 -102 -87 -111 -84 -5 1 -7 -2 -5 -6 1 -4 -33 -47 -77 -95 -227 -250 -438
-564 -486 -725 -7 -23 -14 -42 -15 -42 -1 0 -110 61 -241 136 -255 145 -305
172 -289 156 14 -14 523 -302 533 -302 5 0 14 19 21 43 61 205 379 644 615
848 96 84 145 113 216 128 159 36 278 89 354 160 28 26 73 65 99 86 63 50 331
346 463 511 155 194 305 415 424 623 29 52 81 124 114 160 34 36 84 91 111
122 28 30 106 105 175 166 207 183 415 410 596 650 52 69 84 136 84 172 -1 9
-9 -7 -19 -36 -44 -129 -429 -571 -701 -805 -122 -105 -314 -322 -365 -413
-132 -235 -303 -482 -475 -687 -312 -373 -480 -539 -620 -612 -74 -39 -227
-87 -281 -88 -20 0 -58 10 -85 23 -42 19 -45 23 -26 27 31 5 26 16 -33 60 -28
22 -49 46 -49 55 1 10 -3 14 -9 10 -6 -4 -8 0 -4 10 3 10 3 17 -1 17 -4 0 -13
13 -19 30 -11 29 -13 30 -75 30 -91 0 -177 18 -218 44 -19 13 -61 38 -93 55
-31 18 -57 39 -57 47 0 17 -4 17 143 -2 134 -18 251 -13 299 12 59 30 167 144
199 210 18 36 29 67 26 71 -4 3 -11 -6 -17 -21 -17 -46 -87 -142 -130 -179
-52 -44 -119 -57 -286 -56 -143 1 -190 13 -91 23 91 9 216 35 247 51 24 13 22
13 -22 12 -25 -1 -41 -5 -35 -9 7 -4 -6 -7 -28 -7 -22 1 -59 -2 -83 -5 -52 -7
-164 15 -224 43 l-43 21 40 -4 c22 -2 49 -1 60 3 15 6 11 9 -22 14 -49 8 -131
42 -155 64 -14 12 -15 19 -7 30 9 11 8 12 -5 7 -9 -3 -16 -1 -16 6 0 6 -4 9
-9 5 -6 -3 -26 16 -45 41 -27 35 -36 57 -37 88 0 23 -2 50 -4 61 -2 11 3 27
11 36 12 13 12 19 3 25 -7 4 -10 3 -5 -4 3 -6 2 -13 -3 -16 -26 -17 -21 176 7
257 14 38 20 85 21 158 1 57 4 130 7 161 9 77 42 108 158 148 137 46 187 81
210 145 3 11 -12 -1 -34 -27 -47 -55 -113 -89 -172 -90 -76 -2 -172 12 -196
28 -20 13 -23 21 -18 52 3 21 8 80 11 132 6 116 18 178 46 233 18 35 22 58 21
137 0 52 -4 120 -7 150 -14 123 -14 139 5 163 10 13 72 49 138 80 66 32 126
64 132 72 7 8 16 15 20 15 13 0 32 -175 25 -236 -8 -68 11 -335 23 -343 18
-12 21 -55 6 -81 -9 -14 -38 -41 -65 -60 -95 -66 -151 -115 -172 -150 -18 -31
-14 -28 41 23 34 32 85 68 115 81 29 13 67 36 85 51 l31 26 7 -25 c3 -14 10
-58 14 -98 9 -72 9 -72 5 22 -2 52 -7 108 -11 124 l-7 30 46 -38 c64 -53 123
-143 137 -213 10 -45 9 -67 -2 -114 -18 -72 -4 -67 18 7 23 80 2 165 -63 252
-33 43 -20 41 22 -5 20 -22 35 -32 35 -23 0 7 -27 40 -60 73 l-61 58 48 -7
c64 -9 151 -41 190 -70 52 -39 124 -130 150 -191 l24 -58 -6 43 c-19 140 -145
253 -335 300 l-75 19 40 20 c149 77 278 58 401 -59 87 -82 97 -108 102 -275 8
-249 -27 -560 -88 -776 -16 -56 -27 -103 -25 -105 6 -6 56 149 84 263 51 205
64 299 65 467 1 86 4 151 8 145 3 -7 27 -73 52 -147 72 -216 104 -413 107
-665 1 -99 3 -119 10 -85 4 25 8 115 8 202 1 238 -33 405 -128 625 -17 39 -37
96 -45 125 -48 180 -122 270 -285 350 l-85 41 53 17 c58 19 54 17 70 47 16 30
14 79 -4 114 -14 27 -14 32 -1 57 9 15 25 53 37 85 27 75 80 130 117 123 42
-8 208 -19 202 -13 -3 2 -42 12 -88 21 -92 19 -128 32 -136 52 -5 14 14 154
44 319 11 61 20 124 20 141 0 43 6 45 53 23 46 -20 171 -27 182 -9 4 6 -6 10
-23 10 -35 0 -117 27 -131 44 -8 9 6 10 62 4 109 -10 131 -9 153 8 18 15 18
15 -6 10 -37 -7 -135 8 -133 21 2 11 -14 12 -32 2 -16 -10 -97 15 -108 32 -14
22 10 85 59 159 49 74 75 152 72 215 l-3 50 50 2 c59 3 201 22 221 30 35 13 5
18 -108 18 l-123 0 1 50 c1 75 14 157 29 188 8 15 9 24 3 21 -6 -4 -8 1 -4 12
3 11 17 56 30 101 13 45 32 93 41 107 9 14 17 29 17 33 0 4 2 10 5 13 4 3 2
-2 -2 -10 -8 -13 -7 -13 8 -1 18 15 23 26 7 16 -16 -10 -11 18 8 41 21 27 90
38 143 24 33 -9 43 -18 56 -48 22 -54 13 -135 -52 -437 -31 -143 -76 -357
-100 -475 -24 -118 -60 -289 -80 -380 -32 -142 -36 -177 -32 -247 7 -99 40
-179 87 -206 49 -29 151 -128 182 -176 30 -47 39 -41 13 9 -18 36 -16 36 38 9
41 -21 41 -20 -25 44 -38 36 -68 70 -68 75 0 6 26 -5 57 -24 44 -26 67 -34
102 -33 25 0 39 3 31 6 -55 20 -130 57 -130 65 0 6 -6 8 -14 5 -30 -12 -39 20
-34 121 5 84 13 119 64 270 47 140 62 174 79 178 11 3 65 -11 120 -30 l100
-34 -35 29 c-19 16 -40 29 -47 29 -6 0 -14 4 -18 9 -7 12 55 3 108 -15 20 -7
37 -9 37 -5 0 14 -89 47 -175 66 -44 9 -87 21 -95 27 -11 7 -10 8 6 3 64 -17
182 -35 227 -34 44 1 38 3 -39 14 -97 13 -184 51 -184 81 0 8 22 53 50 100 76
129 98 175 115 249 8 38 24 87 34 111 l19 42 84 -34 c80 -33 129 -40 176 -28
37 10 25 19 -41 31 -63 10 -167 50 -167 62 0 4 33 -1 73 -11 44 -11 98 -17
137 -16 l65 3 -55 13 c-30 8 -66 16 -79 18 -51 10 -91 33 -91 52 0 10 7 41 16
68 8 27 17 90 19 139 6 135 15 206 30 242 26 62 114 123 177 123 45 0 120 -39
135 -70 20 -40 15 -140 -11 -241 -31 -117 -53 -174 -159 -420 -85 -196 -103
-246 -132 -374 -9 -38 -53 -167 -97 -285 -128 -342 -153 -426 -173 -577 -8
-65 18 -192 48 -230 21 -26 174 -212 185 -223 21 -22 -45 88 -78 128 -22 29
-38 52 -34 52 15 0 75 -43 94 -68 21 -26 21 -25 -1 13 -12 22 -29 52 -38 66
-14 24 -14 30 3 67 10 22 38 59 62 83 24 24 44 49 44 55 0 14 105 213 121 229
13 13 104 -35 152 -81 26 -25 37 -31 37 -20 0 22 -66 93 -109 117 -26 14 -29
18 -11 13 41 -10 107 -52 129 -81 11 -16 21 -23 21 -17 0 22 -76 94 -130 124
-65 35 -47 40 26 6 30 -14 70 -45 98 -77 45 -50 48 -52 41 -24 -9 42 -55 86
-136 130 -38 21 -69 43 -69 49 0 6 34 54 75 106 88 111 117 157 145 234 18 46
26 56 45 56 25 0 190 -55 215 -72 8 -6 0 3 -18 20 -19 16 -54 36 -80 43 -25 7
-41 14 -34 17 17 5 122 -27 162 -50 l35 -21 -30 32 c-18 18 -61 43 -105 60
-58 22 -76 33 -78 50 -2 12 21 67 52 124 31 59 67 144 82 198 35 122 86 234
114 249 12 6 46 14 75 17 52 5 56 4 90 -30 19 -19 35 -31 35 -25 0 5 -13 23
-29 39 -26 25 -37 29 -88 29 -76 0 -148 -34 -196 -91 -36 -43 -265 -484 -294
-564 -20 -56 -60 -116 -184 -272 -77 -98 -125 -170 -164 -248 -53 -106 -212
-346 -234 -353 -17 -6 -31 44 -31 106 0 31 11 104 24 162 24 104 36 139 175
517 39 106 76 223 82 260 11 66 48 163 159 418 70 162 118 303 135 404 24 132
3 200 -70 232 -59 26 -123 32 -161 15z m-2235 -1103 c94 -32 157 -89 280 -258
92 -126 109 -167 117 -285 6 -80 5 -86 -17 -107 -26 -24 -240 -136 -303 -159
-42 -15 -64 -11 -25 5 32 13 118 90 101 91 -7 0 -35 -11 -62 -25 -65 -33 -71
-32 -58 6 32 92 -34 333 -141 514 -75 127 -85 161 -56 185 8 7 15 16 15 20 0
14 -41 -2 -53 -21 -16 -26 -27 -24 -27 4 0 55 113 69 229 30z"/>
<path d="M4060 5740 c-6 -11 -8 -20 -6 -20 3 0 10 9 16 20 6 11 8 20 6 20 -3
0 -10 -9 -16 -20z"/>
<path d="M4089 5673 c-13 -16 -12 -17 4 -4 9 7 17 15 17 17 0 8 -8 3 -21 -13z"/>
<path d="M5035 5135 c0 -46 3 -77 7 -67 4 9 7 40 7 67 0 28 -3 58 -7 67 -4 10
-7 -21 -7 -67z"/>
<path d="M5007 4991 c-4 -17 -3 -21 5 -13 5 5 8 16 6 23 -3 8 -7 3 -11 -10z"/>
<path d="M3146 4963 c-4 -9 -1 -21 5 -27 9 -8 10 -7 6 5 -3 9 0 22 6 28 8 8 8
11 0 11 -6 0 -14 -8 -17 -17z"/>
<path d="M3116 4865 c-3 -9 -6 -24 -5 -33 0 -9 5 -4 10 12 9 32 6 48 -5 21z"/>
<path d="M4936 4829 c-9 -23 -15 -43 -13 -46 3 -2 12 15 21 38 9 23 15 43 13
46 -3 2 -12 -15 -21 -38z"/>
<path d="M4910 4769 c0 -47 -319 -631 -420 -769 -26 -36 -80 -114 -120 -175
-41 -60 -107 -154 -147 -209 -91 -122 -113 -164 -120 -230 -7 -72 22 -235 58
-325 34 -85 94 -196 111 -207 18 -11 3 35 -46 138 -59 126 -61 135 -39 161 16
19 16 20 1 8 -35 -27 -19 10 20 45 20 19 76 71 124 114 52 48 92 78 101 75 7
-3 24 -32 37 -63 26 -62 60 -125 66 -119 2 1 -7 30 -20 62 -28 70 -41 135 -27
135 18 0 69 -68 86 -116 37 -100 41 -73 9 59 -18 75 -18 111 1 147 16 30 135
131 179 151 22 10 28 9 49 -17 14 -16 46 -44 72 -63 l48 -35 -19 34 c-10 18
-32 46 -47 61 -16 16 -26 29 -22 29 17 0 66 -33 89 -60 14 -18 26 -28 26 -24
0 17 -44 75 -71 95 -33 23 -33 37 0 20 13 -7 22 -8 26 -1 3 5 1 10 -6 10 -19
0 -4 77 23 113 13 18 41 68 62 112 64 133 92 171 144 195 65 31 134 31 167 0
14 -13 25 -19 25 -13 0 5 -9 18 -21 29 -16 14 -36 19 -83 18 -90 0 -151 -36
-256 -148 -203 -217 -372 -383 -465 -456 -55 -43 -142 -116 -193 -163 -125
-114 -170 -146 -183 -126 -19 30 -13 161 8 204 9 17 50 77 92 135 77 106 215
306 317 460 143 217 389 688 369 708 -3 3 -5 3 -5 1z"/>
<path d="M3846 4704 c-15 -27 -19 -41 -10 -33 18 15 47 69 41 75 -3 3 -16 -16
-31 -42z"/>
<path d="M4586 4272 c-3 -5 1 -9 9 -9 8 0 12 4 9 9 -3 4 -7 8 -9 8 -2 0 -6 -4
-9 -8z"/>
<path d="M3132 4240 c0 -14 2 -19 5 -12 2 6 2 18 0 25 -3 6 -5 1 -5 -13z"/>
<path d="M4559 4233 c-13 -16 -12 -17 4 -4 16 13 21 21 13 21 -2 0 -10 -8 -17
-17z"/>
<path d="M4330 4220 c-6 -11 -8 -20 -6 -20 3 0 10 9 16 20 6 11 8 20 6 20 -3
0 -10 -9 -16 -20z"/>
<path d="M3133 4145 c0 -22 2 -30 4 -17 2 12 2 30 0 40 -3 9 -5 -1 -4 -23z"/>
<path d="M5331 4074 c0 -11 3 -14 6 -6 3 7 2 16 -1 19 -3 4 -6 -2 -5 -13z"/>
<path d="M5085 3733 c-27 -32 -39 -49 -26 -38 24 21 86 95 79 95 -2 0 -26 -26
-53 -57z"/>
<path d="M4117 3639 c-26 -33 -41 -57 -33 -52 13 7 57 63 80 101 16 27 -1 9
-47 -49z"/>
<path d="M4994 3638 l-19 -23 23 19 c12 11 22 21 22 23 0 8 -8 2 -26 -19z"/>
<path d="M3433 3590 c0 -30 2 -43 4 -27 2 15 2 39 0 55 -2 15 -4 2 -4 -28z"/>
<path d="M2640 3562 c0 -4 13 -15 29 -24 21 -11 28 -12 25 -4 -6 15 -54 40
-54 28z"/>
<path d="M3422 3510 c0 -14 2 -19 5 -12 2 6 2 18 0 25 -3 6 -5 1 -5 -13z"/>
<path d="M3403 3453 c-5 -16 -8 -62 -8 -104 1 -69 5 -85 44 -165 23 -49 48
-99 54 -112 6 -12 120 -133 255 -270 134 -136 234 -234 223 -218 -11 15 -18
33 -14 39 3 5 1 7 -5 4 -5 -4 -56 41 -112 100 -56 59 -96 109 -90 111 14 5 -7
32 -25 32 -22 0 -173 186 -205 252 -17 35 -44 78 -60 96 -42 49 -54 93 -47
184 7 81 3 98 -10 51z"/>
<path d="M2781 3335 c14 -16 35 -43 47 -59 12 -16 22 -23 22 -17 0 7 -21 34
-47 60 -27 26 -36 33 -22 16z"/>
<path d="M4744 3348 l-19 -23 23 19 c21 18 27 26 19 26 -2 0 -12 -10 -23 -22z"/>
<path d="M4655 3274 l-30 -26 33 22 c17 12 32 23 32 26 0 7 -4 5 -35 -22z"/>
<path d="M3334 3195 c37 -84 54 -110 32 -48 -16 45 -54 123 -60 123 -3 0 10
-34 28 -75z"/>
<path d="M3529 3204 c-18 -19 -27 -32 -18 -29 14 5 65 65 56 65 -2 0 -19 -16
-38 -36z"/>
<path d="M4225 3080 c-16 -11 -25 -20 -20 -20 10 0 64 39 55 40 -3 0 -18 -9
-35 -20z"/>
<path d="M3380 3083 c0 -20 43 -129 47 -118 2 6 -8 38 -21 70 -14 33 -25 55
-26 48z"/>
<path d="M4419 3043 l-24 -28 28 24 c25 23 32 31 24 31 -2 0 -14 -12 -28 -27z"/>
<path d="M1994 2368 l-19 -23 23 19 c21 18 27 26 19 26 -2 0 -12 -10 -23 -22z"/>
<path d="M2108 2136 c-23 -21 -25 -25 -10 -31 9 -3 13 -3 9 1 -4 4 3 18 15 31
28 30 21 29 -14 -1z"/>
<path d="M2395 1740 c-13 -5 -14 -9 -5 -9 8 0 24 4 35 9 13 5 14 9 5 9 -8 0
-24 -4 -35 -9z"/>
<path d="M1962 1680 c0 -14 2 -19 5 -12 2 6 2 18 0 25 -3 6 -5 1 -5 -13z"/>
<path d="M2066 1692 c-2 -4 5 -19 15 -32 l20 -25 -12 25 c-7 14 -12 28 -11 33
3 9 -5 9 -12 -1z"/>
<path d="M2170 1680 c6 -11 13 -20 16 -20 2 0 0 9 -6 20 -6 11 -13 20 -16 20
-2 0 0 -9 6 -20z"/>
<path d="M2090 1686 c0 -2 8 -10 18 -17 15 -13 16 -12 3 4 -13 16 -21 21 -21
13z"/>
<path d="M2140 1646 c0 -2 8 -10 18 -17 15 -13 16 -12 3 4 -13 16 -21 21 -21
13z"/>
<path d="M2120 1636 c0 -2 8 -10 18 -17 15 -13 16 -12 3 4 -13 16 -21 21 -21
13z"/>
<path d="M2010 1620 c0 -8 5 -22 10 -30 9 -13 10 -13 10 0 0 8 -5 22 -10 30
-9 13 -10 13 -10 0z"/>
<path d="M2285 1590 c3 -5 11 -10 16 -10 6 0 7 5 4 10 -3 6 -11 10 -16 10 -6
0 -7 -4 -4 -10z"/>
<path d="M3129 1523 c-13 -16 -12 -17 4 -4 16 13 21 21 13 21 -2 0 -10 -8 -17
-17z"/>
<path d="M1610 1358 c-12 -22 -12 -22 6 -6 10 10 15 20 12 24 -4 3 -12 -5 -18
-18z"/>
<path d="M1528 1248 c-19 -29 -37 -62 -40 -73 -3 -11 -9 -29 -13 -40 -3 -11
11 13 33 52 22 40 45 80 52 88 7 9 11 18 8 21 -3 3 -21 -19 -40 -48z"/>
<path d="M1398 1218 c-29 -39 -41 -58 -35 -58 2 0 18 20 36 45 37 51 36 62 -1
13z"/>
<path d="M1260 1225 c-8 -9 -8 -15 -2 -15 12 0 26 19 19 26 -2 2 -10 -2 -17
-11z"/>
<path d="M1337 1208 c-28 -38 -40 -58 -34 -58 2 0 18 20 36 45 18 25 30 45 27
45 -3 0 -16 -15 -29 -32z"/>
<path d="M1409 1178 c-13 -18 -34 -48 -47 -65 -13 -18 -22 -33 -19 -33 4 0 75
91 91 118 15 26 -4 10 -25 -20z"/>
<path d="M2500 1190 c-9 -6 -10 -10 -3 -10 6 0 15 5 18 10 8 12 4 12 -15 0z"/>
<path d="M1319 1053 c-13 -16 -12 -17 4 -4 16 13 21 21 13 21 -2 0 -10 -8 -17
-17z"/>
<path d="M1139 1033 c-13 -16 -12 -17 4 -4 9 7 17 15 17 17 0 8 -8 3 -21 -13z"/>
<path d="M1475 1009 c-3 -4 2 -6 10 -5 21 3 28 13 10 13 -9 0 -18 -4 -20 -8z"/>
<path d="M1163 998 c-15 -20 -25 -38 -20 -38 3 0 12 11 21 25 17 26 16 35 -1
13z"/>
<path d="M1039 983 c-13 -16 -12 -17 4 -4 9 7 17 15 17 17 0 8 -8 3 -21 -13z"/>
<path d="M1415 944 c-9 -15 -12 -23 -6 -20 11 7 35 46 28 46 -3 0 -12 -12 -22
-26z"/>
<path d="M1426 922 l-19 -27 24 22 c12 12 21 24 18 27 -2 2 -13 -8 -23 -22z"/>
<path d="M2229 913 l-34 -38 38 34 c20 19 37 36 37 38 0 8 -8 0 -41 -34z"/>
<path d="M1253 819 c26 -18 50 -29 53 -27 5 5 -82 58 -95 58 -3 0 16 -14 42
-31z"/>
<path d="M1320 786 c0 -6 135 -86 146 -86 11 0 -20 21 -88 60 -32 17 -58 29
-58 26z"/>
<path d="M1480 696 c0 -3 9 -10 20 -16 11 -6 20 -8 20 -6 0 3 -9 10 -20 16
-11 6 -20 8 -20 6z"/>
</g>
</svg>
